<svg width="297" height="124" viewBox="0 0 297 124" fill="none" xmlns="http://www.w3.org/2000/svg">
<path d="M275.93 54.1L294.55 0.189941H271.53L260.05 40.16L262.38 48.3101L264.43 54.95C265.33 57.86 265.35 60.96 264.48 63.88L262.38 71L260.16 78.37L273.52 123.23H296.37L275.93 64.1899C274.8 60.9199 274.8 57.36 275.93 54.08V54.1Z" fill="#1E40AF"/>
<path d="M259.7 54.96L257.65 48.3199L243.9 0.189941V0.290039L243.87 0.189941H221.02L241.23 59.3101L218.87 123.24H241.89L241.92 123.13V123.24L257.65 71.01L259.75 63.89C260.61 60.97 260.59 57.87 259.7 54.96Z" fill="#61B22F"/>
<path d="M178.82 104.45V70H208.96V51.45H178.82V23.78H168.33V19.36H178.82V19.3101H197.81C206.35 19.3101 213.27 12.39 213.27 3.84998V0.430054H157.46V123.48H213.93V104.43H178.82V104.45Z" fill="#61B22F"/>
<path d="M55.11 0.449951H26.79L0.619995 123.5H9.64001C17.09 123.5 23.47 118.19 24.84 110.87L26.96 99.48H27.25H27.18L29.11 89.25V89.15H33.53V89.77C33.53 89.85 33.5 89.93 33.47 89.99L31.68 99.48H54.96L59.43 123.49H81.29L55.12 0.439941L55.11 0.449951ZM30.43 80.9399L39.21 34.24L40.87 23.97H41.2L42.69 34.4L51.47 80.9399H30.44H30.43Z" fill="#61B22F"/>
<path d="M143.55 9.46997C137.37 3.44997 128.92 0.439941 118.21 0.439941H86.41V123.49H107.77V87.39H119.69C130.07 87.39 138.18 84.3 144.04 78.12C149.89 71.94 152.82 62.55 152.82 49.97V36.72C152.82 24.58 149.73 15.5 143.55 9.47998V9.46997ZM131.46 49.97C131.46 57.04 130.16 61.89 127.57 64.54C124.97 67.19 121.08 68.51 115.89 68.51H107.78L97.67 68.5V64.08H107.78V19.48H116.56C121.64 19.48 125.39 20.86 127.82 23.62C130.25 26.38 131.46 30.91 131.46 37.2V49.95V49.97Z" fill="#61B22F"/>
</svg>
