<svg width="47" height="54" viewBox="0 0 47 54" fill="none" xmlns="http://www.w3.org/2000/svg">
<path d="M23.4993 49.7159C21.1225 53.5505 16.8373 51.6311 14.958 50.5735C12.5353 49.2116 -4.29007 37.8333 3.47146 22.7247C6.80142 16.2429 13.43 16.0812 17.8657 17.7708C20.8403 18.905 21.0473 21.4011 23.1815 21.4011C25.4559 21.4011 26.4195 18.107 29.9878 17.0601C33.6606 15.9812 40.7051 17.2282 43.5292 22.7247C51.2907 37.8333 34.4633 49.2116 32.0426 50.5735C30.1655 51.6311 25.8781 53.5505 23.5014 49.7159H23.4993Z" stroke="#1E40AF" stroke-width="2.2" stroke-linecap="round" stroke-linejoin="round"/>
<path d="M40.4121 24.7941C39.2555 22.7713 36.8915 21.5838 34.5298 21.1177" stroke="#1E40AF" stroke-width="2.2" stroke-linecap="round" stroke-linejoin="round"/>
<path d="M34.5298 43.1765C38.6897 39.7084 43.5531 33.9298 41.3209 27" stroke="#1E40AF" stroke-width="2.2" stroke-linecap="round" stroke-linejoin="round"/>
<path d="M25.7061 20.3824L24.2063 14.5H22.0612L20.5591 20.0784" stroke="#1E40AF" stroke-width="2.2" stroke-linecap="round" stroke-linejoin="round"/>
<path d="M21.1211 16.7059C21.1211 16.7059 11.3613 11.6848 14.5999 2C23.7612 5.03787 21.8677 14.6607 21.8677 14.6607L21.1211 16.7037V16.7059Z" stroke="#1E40AF" stroke-width="2.2" stroke-linecap="round" stroke-linejoin="round"/>
</svg>
