<svg width="25" height="52" viewBox="0 0 25 52" fill="none" xmlns="http://www.w3.org/2000/svg">
<path d="M23.3295 51L4.4873 50.772L4.87551 18.317C4.90997 15.4448 7.25368 13.1452 10.1089 13.1798L18.6076 13.282C21.4629 13.3166 23.7522 15.6727 23.7177 18.5449L23.3295 51Z" stroke="#1E40AF" stroke-width="2" stroke-linecap="round" stroke-linejoin="round"/>
<path d="M21.1538 11.9872C21.1613 11.3222 20.6832 10.7761 20.0873 10.7677L8.78514 10.6156C8.1893 10.6072 7.69994 11.1409 7.69247 11.8058C7.685 12.4708 8.16315 13.019 8.75899 13.0273L20.0612 13.1795C20.657 13.1878 21.1464 12.6521 21.1538 11.9872Z" stroke="#1E40AF" stroke-width="2" stroke-linecap="round" stroke-linejoin="round"/>
<path d="M21.7802 11.2564L6.41064 11.0583L6.42538 9.73243C6.46033 6.64339 8.83703 4.16823 11.7343 4.20549L16.6147 4.26825C19.5102 4.30552 21.8298 6.83952 21.7949 9.93052L21.7802 11.2564Z" stroke="#1E40AF" stroke-width="2" stroke-linecap="round" stroke-linejoin="round"/>
<path d="M8.97461 8.69236C9.38345 7.57094 10.6697 6.75535 12.1797 6.76947" stroke="#1E40AF" stroke-width="2" stroke-linecap="round" stroke-linejoin="round"/>
<path d="M16.6668 2.7628C16.6797 1.80012 15.8338 1.01187 14.7742 1.00013C13.7183 0.988392 12.8521 1.75987 12.8392 2.72087L12.8208 4.1632L16.6484 4.20513L16.6668 2.7628Z" stroke="#1E40AF" stroke-width="2" stroke-linecap="round" stroke-linejoin="round"/>
<path d="M8.82939 5.53373L5.02806 5.48736C2.98438 5.46139 1.3077 7.14929 1.28251 9.25824C1.25733 11.3653 2.89442 13.0959 4.93811 13.1219L9.61556 13.1794" stroke="#1E40AF" stroke-width="2" stroke-linecap="round" stroke-linejoin="round"/>
<path d="M4.4873 19.5898H23.7181" stroke="#1E40AF" stroke-width="2" stroke-linecap="round" stroke-linejoin="round"/>
<path d="M4.4873 43.3076H23.7181" stroke="#1E40AF" stroke-width="2" stroke-linecap="round" stroke-linejoin="round"/>
<path d="M7.69238 24.718C9.29495 24.739 9.27602 26.534 10.8786 26.5549C12.4811 26.5759 12.5001 24.783 14.1027 24.804C15.7052 24.825 15.6863 26.6199 17.2888 26.6409C18.8914 26.6619 18.9103 24.869 20.5129 24.89" stroke="#1E40AF" stroke-width="2" stroke-linecap="round" stroke-linejoin="round"/>
<path d="M7.69238 29.2051C9.29495 29.2191 9.27602 30.4157 10.8786 30.4297C12.4811 30.4437 12.5001 29.2484 14.1027 29.2624C15.7052 29.2764 15.6863 30.473 17.2888 30.487C18.8914 30.501 18.9103 29.3057 20.5129 29.3197" stroke="#1E40AF" stroke-width="2" stroke-linecap="round" stroke-linejoin="round"/>
<path d="M7.69238 33.0513C9.29495 33.0722 9.276 34.8672 10.8786 34.8882C12.4811 34.9092 12.5001 33.1163 14.1026 33.1372C15.7052 33.1582 15.6863 34.9532 17.2888 34.9742C18.8914 34.9951 18.9103 33.2022 20.5129 33.2232" stroke="#1E40AF" stroke-width="2" stroke-linecap="round" stroke-linejoin="round"/>
</svg>
