<svg width="79" height="44" viewBox="0 0 79 44" fill="none" xmlns="http://www.w3.org/2000/svg">
<path d="M11.5 14.1695V5.13904C11.5 3.4046 12.9081 2 14.6532 2H24.3468C26.0891 2 27.5 3.4046 27.5 5.13904V38.8581C27.5 40.5926 26.0891 42 24.3468 42H14.6532C12.9081 42 11.5 40.5926 11.5 38.8581V28.8752" stroke="#1E40AF" stroke-width="2.5" stroke-linecap="round" stroke-linejoin="round"/>
<path d="M11.5 37H4.71481C2.93982 37 1.5 35.5888 1.5 33.8463V10.1537C1.5 8.41401 2.93982 7 4.71481 7H11.5" stroke="#1E40AF" stroke-width="2.5" stroke-linecap="round" stroke-linejoin="round"/>
<path d="M68.5 14.1695V5.13904C68.5 3.4046 67.0865 2 65.3446 2H55.6526C53.9107 2 52.5 3.4046 52.5 5.13904V38.8581C52.5 40.5926 53.9135 42 55.6526 42H65.3446C67.0865 42 68.5 40.5926 68.5 38.8581V28.8752" stroke="#1E40AF" stroke-width="2.5" stroke-linecap="round" stroke-linejoin="round"/>
<path d="M68.5 37H74.6023C76.2019 37 77.5 35.5888 77.5 33.8463V10.1537C77.5 8.41401 76.2019 7 74.6023 7H68.5" stroke="#1E40AF" stroke-width="2.5" stroke-linecap="round" stroke-linejoin="round"/>
<path d="M27.5 17H52.5" stroke="#1E40AF" stroke-width="2.5" stroke-linecap="round" stroke-linejoin="round"/>
<path d="M27.5 25H52.5" stroke="#1E40AF" stroke-width="2.5" stroke-linecap="round" stroke-linejoin="round"/>
</svg>
